<?xml version="1.0" encoding="utf-8"?>
<!-- Generator: Adobe Illustrator 28.3.0, SVG Export Plug-In . SVG Version: 6.00 Build 0)  -->
<svg version="1.1" id="Lager_1" xmlns="http://www.w3.org/2000/svg" xmlns:xlink="http://www.w3.org/1999/xlink" x="0px" y="0px"
	 viewBox="0 0 116.65 132.32" style="enable-background:new 0 0 116.65 132.32;" xml:space="preserve">
<style type="text/css">
	.st0{fill:#003063;}
</style>
<path class="st0" d="M71.18,20.35v20.53h1.7c0.67,0,1.27,0.27,1.71,0.71s0.71,1.04,0.71,1.71v8.74h1.8c0.82,0,1.48,0.66,1.49,1.47
	l5.57,57c1.78,0.12,3.25,0.89,4.41,2.05c1.35,1.35,2.25,3.26,2.7,5.29l1.65,7.47c0.18,0.8-0.33,1.59-1.13,1.77
	c-0.11,0.02-0.21,0.04-0.32,0.04v0.01H22.61c-0.83,0-1.49-0.67-1.49-1.5c0-0.14,0.02-0.28,0.06-0.41l1.89-7.42
	c0.51-2.01,1.41-3.91,2.77-5.28c1.13-1.13,2.56-1.88,4.31-2.01l4.93-57.11c0.07-0.78,0.72-1.36,1.49-1.36h2.49v-8.74
	c0-0.67,0.27-1.27,0.71-1.71s1.04-0.71,1.71-0.71h1.7V20.35h-1.82c-0.83,0-1.49-0.68-1.49-1.5c0-0.27,0.08-0.54,0.22-0.77
	c1.68-3.2,4.15-5.88,7.12-7.75c2.52-1.58,5.4-2.58,8.48-2.83V5.74c0-0.82,0.67-1.49,1.49-1.49s1.49,0.67,1.49,1.49V7.5
	c3.08,0.25,5.96,1.25,8.48,2.83c3.01,1.89,5.49,4.6,7.18,7.85c0.38,0.73,0.09,1.63-0.64,2c-0.22,0.11-0.45,0.17-0.68,0.17H71.18z
	 M82.06,36.73c-1.17-0.37-1.82-1.61-1.46-2.78c0.37-1.17,1.61-1.82,2.78-1.46l26.56,8.32c1.17,0.36,1.82,1.61,1.46,2.78
	c-0.37,1.17-1.61,1.82-2.78,1.46C108.62,45.05,82.06,36.73,82.06,36.73z M83.69,21.96c-1.1,0.54-2.43,0.08-2.96-1.02
	c-0.54-1.1-0.08-2.43,1.02-2.96l25.81-12.64c1.1-0.54,2.43-0.08,2.96,1.02c0.54,1.1,0.08,2.43-1.02,2.96
	C109.5,9.32,83.69,21.96,83.69,21.96z M32.12,32.49c1.17-0.36,2.42,0.29,2.78,1.46c0.36,1.17-0.29,2.42-1.46,2.78L6.88,45.04
	c-1.17,0.36-2.42-0.29-2.78-1.46s0.29-2.42,1.46-2.78C5.56,40.8,32.12,32.49,32.12,32.49z M33.75,17.98
	c1.1,0.54,1.55,1.86,1.02,2.96c-0.54,1.1-1.86,1.55-2.96,1.02L5.99,9.32c-1.1-0.54-1.55-1.87-1.01-2.97S6.84,4.8,7.94,5.34
	C7.94,5.34,33.75,17.98,33.75,17.98z M58.66,20.86v19.5h9.55v-19.5H58.66z M55.68,40.37v-19.5h-9.55v19.5H55.68z"/>
</svg>
